<svg xmlns="http://www.w3.org/2000/svg" xmlns:xlink="http://www.w3.org/1999/xlink" viewBox="0 0 109.89 110.09"><defs><style>.cls-1{fill:#ed1e79;}.cls-2{clip-path:url(#clip-path);}.cls-3{fill:#898989;}.cls-4{fill:#a8a8a8;}.cls-5{fill:#fff;}.cls-6{fill:#2b2b2b;}.cls-7{fill:#ededed;}</style><clipPath id="clip-path"><path class="cls-1" d="M109.89,54.94A54.95,54.95,0,1,1,54.94,0a54.93,54.93,0,0,1,55,54.94"/></clipPath></defs><title>avatarV</title><g id="Layer_2" data-name="Layer 2"><g id="Layer_1-2" data-name="Layer 1"><path class="cls-1" d="M109.89,54.94A54.95,54.95,0,1,1,54.94,0a54.93,54.93,0,0,1,55,54.94"/><g class="cls-2"><path class="cls-3" d="M52.06,11.08C44.67-3.45,19.08,9,23.25,32.52c3.34,18.84,9.1,16.44,2.86,35.7,0,0,9.48-4.15,12.69-25,2.58-16.72,13.26-32.15,13.26-32.15"/><path class="cls-4" d="M53,10.86C46.37.62,21.66,12.11,26.78,34.78,31,53.44,32.57,60.38,26.09,76c0,0,17.48-11.45,15.62-30.79C40.09,28.34,53,10.86,53,10.86"/><path class="cls-3" d="M55.1,11.67C47.9,5.23,28.81,11.93,29.72,31s11.79,28.18,0,44.79c0,0,19.15-3.83,20.74-20.67S55.1,11.67,55.1,11.67"/><path class="cls-5" d="M63.76,49.78l2.16,19.7c6,11.06-29.45,11.88-22.69-.32l2.09-19.38c0-10.64,18.44-10.64,18.44,0"/><path class="cls-6" d="M86.85,107.67c-.54-2-2.64-12-2.64-12S83.59,105,83.29,108Z"/><path class="cls-6" d="M22.75,107.67c.54-2,3.09-11.59,3.09-11.59s-.16,8.85.14,11.9Z"/><path d="M94.44,77.59C90,74.45,83.7,74.82,78.64,73.34,74.5,72.14,70,71,66,69.39c.17,8.24-21.88,6.64-22.75-.45-8.84,3.6-12.64,4.78-18.65,6.87-5.67,2-9.78,2.38-12,8.51C10,91.37,8.88,99,7.36,106.26l16.3.84a18,18,0,0,1-.31,2.77l31.27.22h.49l31.27-.22a20.75,20.75,0,0,1-.34-2.94l13.92-.76c1.49-.08.34-10.46.26-11.46-.44-5.44-.32-12-4.53-16.09A10.21,10.21,0,0,0,94.44,77.59Z"/><path class="cls-7" d="M63.76,49.43l1.76,15.64c-6.37,4.32-13,4.55-21.84-.23l1.64-15.41c0-11.38,18.44-11.38,18.44,0"/><path class="cls-5" d="M71.74,48.42c-.82,4-5.56,16.71-16.92,16.71-12.45,0-16.88-12.72-17.71-16.71C34.25,34.59,35.86,14.3,54.43,14.3S74.6,34.59,71.74,48.42"/><path class="cls-3" d="M45.5,15.77S56.76,21,67.57,39.2c1.46,2.47,6.82-6.6,6.82-6.6L62.79,13.49l-15,.69Z"/><path class="cls-4" d="M52.39,13l.4-.33A12.18,12.18,0,0,1,54,11.84a10.08,10.08,0,0,1,2.14-1,9.62,9.62,0,0,1,1.43-.37,10.87,10.87,0,0,1,1.66-.16,11.9,11.9,0,0,1,3.76.55,14.9,14.9,0,0,1,3.8,1.83,19.29,19.29,0,0,1,3.39,2.89A22.22,22.22,0,0,1,73,19.27,19.73,19.73,0,0,1,74,21.37c.08.18.16.37.23.56l0,.14,0,.07,0,.1.08.26.1.34.09.31c0,.2.09.4.13.6.08.4.15.78.19,1.16s.08.75.1,1.12.05.71.06,1.06,0,.69,0,1c0,.67,0,1.31,0,1.93s0,1.21,0,1.79,0,1.12,0,1.64c0,.26,0,.51.06.76s0,.49.08.72a12.07,12.07,0,0,0,.28,1.31A9.27,9.27,0,0,0,76,37.4a7.18,7.18,0,0,0,1.1,1.72,9,9,0,0,0,1,1l.4.33-.14,0a2.8,2.8,0,0,1-.38-.06,6.42,6.42,0,0,1-1.46-.46,6.67,6.67,0,0,1-2-1.43,8.81,8.81,0,0,1-1.79-2.72A13.3,13.3,0,0,1,72.1,34a18.47,18.47,0,0,1-.44-1.85c-.12-.63-.21-1.27-.29-1.91s-.16-1.3-.23-1.94c0-.32-.07-.64-.1-1s-.07-.63-.11-.94-.09-.62-.14-.92-.1-.59-.17-.87-.06-.28-.1-.41l-.06-.2,0-.16-.08-.23-.07-.18c-.05-.13-.1-.27-.16-.41a18.22,18.22,0,0,0-.82-1.66,23.7,23.7,0,0,0-2.11-3.15,20.56,20.56,0,0,0-2.52-2.65,15.08,15.08,0,0,0-2.77-1.93,11.3,11.3,0,0,0-2.83-1.06,10.83,10.83,0,0,0-2.64-.26,12.59,12.59,0,0,0-2.13.22c-.59.1-1.06.23-1.39.31l-.5.13"/><path class="cls-3" d="M49.67,14l.13-.08.38-.21.65-.32c.26-.12.56-.25.9-.38a16.09,16.09,0,0,1,2.58-.75A14.6,14.6,0,0,1,58,12a13,13,0,0,1,8.64,3.65,16.14,16.14,0,0,1,1.61,1.82l.18.24.09.12,0,.06.08.12.07.11,0,.05.06.09.11.19.11.18a10.56,10.56,0,0,1,.55,1.22,17.61,17.61,0,0,1,.67,2.24c.18.72.32,1.43.46,2.14.26,1.4.48,2.77.72,4.1s.47,2.63.77,3.85a31.16,31.16,0,0,0,1,3.45c.21.53.43,1,.66,1.51a13.23,13.23,0,0,0,.76,1.35,10.92,10.92,0,0,0,1.78,2.13,10.44,10.44,0,0,0,.94.76l.46.31.45.26a12.89,12.89,0,0,0,1.41.68l.53.21H79.6a11.49,11.49,0,0,1-1.68-.19l-.57-.14-.61-.18a11.86,11.86,0,0,1-1.35-.54A13.24,13.24,0,0,1,74,40.92a11.76,11.76,0,0,1-1.39-1.12,13.28,13.28,0,0,1-1.31-1.38,17.8,17.8,0,0,1-1.17-1.6,23.93,23.93,0,0,1-1.92-3.66,40.49,40.49,0,0,1-1.43-4c-.41-1.36-.77-2.74-1.12-4.09-.18-.67-.36-1.33-.54-2a18,18,0,0,0-.6-1.76,5.83,5.83,0,0,0-.33-.7l0-.05,0,0v0l0-.06L64,20.37l-.24-.32c-.38-.48-.77-.93-1.16-1.35a12.7,12.7,0,0,0-2.51-2,13.08,13.08,0,0,0-2.83-1.28c-.49-.15-1-.29-1.46-.4s-1-.22-1.41-.3c-.92-.17-1.75-.27-2.45-.37l-1.67-.21L49.82,14l-.15,0"/><path class="cls-4" d="M45.5,14.76l.11-.07.33-.17A6,6,0,0,1,47.33,14a6.24,6.24,0,0,1,2.38,0,7.25,7.25,0,0,1,1.46.43,10.26,10.26,0,0,1,1.49.79,13.43,13.43,0,0,1,2.75,2.46,24.63,24.63,0,0,1,2.31,3.22c.69,1.15,1.33,2.36,1.92,3.57S60.8,26.91,61.37,28s1.3,2.24,2,3.34a22.56,22.56,0,0,0,1.94,2.88c.34.42.69.82,1.06,1.2s.76.72,1.15,1.06.8.64,1.21.93c.2.15.41.29.61.42l.61.4c.81.51,1.59,1,2.3,1.34l1.88,1c.26.13.5.25.71.37l.53.27.44.24-.5.05c-.33,0-.8.07-1.41.07a19.88,19.88,0,0,1-2.19-.09,19.16,19.16,0,0,1-2.85-.49,16.19,16.19,0,0,1-3.33-1.22,15.5,15.5,0,0,1-1.73-1,15.69,15.69,0,0,1-1.67-1.33,19.3,19.3,0,0,1-2.82-3.32c-.41-.58-.79-1.17-1.15-1.74-.17-.29-.35-.57-.53-.85L57.29,31,57,30.48a40.33,40.33,0,0,1-1.79-3.85c-.52-1.23-1-2.42-1.47-3.53a24.38,24.38,0,0,0-3-5.54,9.43,9.43,0,0,0-.83-.92,6.23,6.23,0,0,0-.88-.71,6.77,6.77,0,0,0-1.73-.83A8,8,0,0,0,46,14.82l-.49-.06"/><path class="cls-3" d="M49.86,14.35l.11,0c.08,0,.19-.1.34-.16a5.82,5.82,0,0,1,1.42-.38,6.42,6.42,0,0,1,2.38.12,7.85,7.85,0,0,1,1.42.51,9.85,9.85,0,0,1,1.44.87,12.86,12.86,0,0,1,2.6,2.61,22.84,22.84,0,0,1,2.11,3.32c.63,1.18,1.19,2.41,1.71,3.64s1,2.47,1.51,3.54l1.75,3.42a23.38,23.38,0,0,0,1.76,3c.31.44.65.85,1,1.25a14.4,14.4,0,0,0,1.09,1.12c.37.35.76.68,1.15,1,.19.16.38.32.58.46s.39.28.59.43c.77.55,1.53,1,2.21,1.46l1.81,1.09.69.41.51.31.43.26-.5,0c-.33,0-.8,0-1.41,0a21.14,21.14,0,0,1-2.18-.23,19.26,19.26,0,0,1-2.82-.65,17.11,17.11,0,0,1-3.25-1.41,16.55,16.55,0,0,1-1.66-1.11,16.05,16.05,0,0,1-1.59-1.41,19.33,19.33,0,0,1-2.62-3.46c-.37-.6-.71-1.2-1-1.79l-.48-.87-.26-.5c-.09-.17-.18-.35-.26-.52a41.79,41.79,0,0,1-1.56-3.91c-.44-1.25-.84-2.45-1.25-3.58a23.88,23.88,0,0,0-2.66-5.65,7.69,7.69,0,0,0-.78-1,5.26,5.26,0,0,0-.83-.75,6.42,6.42,0,0,0-1.67-.93,10.41,10.41,0,0,0-1.29-.36l-.49-.09"/><path class="cls-4" d="M47.77,14.05,47.9,14a3.6,3.6,0,0,1,.36-.22,5.88,5.88,0,0,1,.59-.32q.38-.19.84-.39a14.33,14.33,0,0,1,2.41-.77A12.66,12.66,0,0,1,55.51,12a11.62,11.62,0,0,1,4.16,1,12.27,12.27,0,0,1,3.89,2.77,16.6,16.6,0,0,1,1.5,1.87l.17.24.08.12,0,.07.07.11.07.11,0,.06,0,.09.11.2c0,.06.07.13.09.18A9.69,9.69,0,0,1,66.3,20a20.73,20.73,0,0,1,.62,2.29c.17.74.3,1.47.43,2.19.24,1.43.45,2.84.67,4.2s.44,2.68.72,3.93a32,32,0,0,0,1,3.52c.19.54.4,1.06.61,1.56A14.64,14.64,0,0,0,71,39.05a10.67,10.67,0,0,0,1.66,2.18,7.7,7.7,0,0,0,.88.77c.14.12.29.22.43.32l.41.27a12.63,12.63,0,0,0,1.31.69l.5.21h-.55a9.21,9.21,0,0,1-1.57-.2c-.16,0-.34-.08-.52-.14L73,43a10.13,10.13,0,0,1-1.25-.56,10.69,10.69,0,0,1-2.61-2A13,13,0,0,1,67.91,39a17.12,17.12,0,0,1-1.09-1.63A25.31,25.31,0,0,1,65,33.64c-.5-1.33-1-2.71-1.33-4.1s-.72-2.81-1.05-4.18c-.16-.69-.33-1.36-.5-2s-.36-1.27-.56-1.81a7,7,0,0,0-.3-.7s0,0,0-.05l0,0s0,0,0,0l0-.06-.07-.11-.22-.33q-.52-.74-1.08-1.38a11.28,11.28,0,0,0-5-3.39,14.06,14.06,0,0,0-1.36-.41c-.45-.12-.89-.22-1.32-.31-.85-.17-1.63-.28-2.28-.38l-1.55-.22-.42-.06-.15,0"/><path class="cls-4" d="M50.39,15.05C37.27,21.86,38,38.77,38,38.77c-1.79-1-2.47-.27-2.5-.37-4.85-14.51,6.91-27.22,14.87-23.35"/><path class="cls-5" d="M34.79,37.92c1.78-.76,4,.72,5.21,4.07a8.63,8.63,0,0,1-1.19,7.89c-1,1.11-3.92-1-4.62-5.19-.56-3.37-1.17-6,.6-6.77"/></g></g></g></svg>